<?xml version="1.0" encoding="iso-8859-1"?>
<!-- Generator: Adobe Illustrator 16.0.0, SVG Export Plug-In . SVG Version: 6.00 Build 0)  -->
<!DOCTYPE svg PUBLIC "-//W3C//DTD SVG 1.1//EN" "http://www.w3.org/Graphics/SVG/1.1/DTD/svg11.dtd">
<svg version="1.1" id="Capa_1" xmlns="http://www.w3.org/2000/svg" xmlns:xlink="http://www.w3.org/1999/xlink" x="0px" y="0px"
	 width="459px" height="459px" viewBox="0 0 459 459" style="enable-background:new 0 0 459 459;" xml:space="preserve">
<g>
	<g>
		<path d="M286.875,76.5c-57.375,0-105.188,47.812-105.188,105.188S229.5,286.875,286.875,286.875s105.188-47.812,105.188-105.188
			S344.25,76.5,286.875,76.5z M353.812,191.25H219.938v-19.125h133.875V191.25z"/>
		<path d="M162.562,181.688c0-68.85,55.462-124.312,124.312-124.312c3.825,0,5.737,0,9.562,0l0,0
			C296.438,24.862,271.575,0,239.062,0h-114.75C91.8,0,66.938,24.862,66.938,57.375V459l114.75-114.75L296.438,459V306
			c-3.825,0-5.737,0-9.562,0C218.025,306,162.562,250.537,162.562,181.688z"/>
	</g>
</g>
<g>
</g>
<g>
</g>
<g>
</g>
<g>
</g>
<g>
</g>
<g>
</g>
<g>
</g>
<g>
</g>
<g>
</g>
<g>
</g>
<g>
</g>
<g>
</g>
<g>
</g>
<g>
</g>
<g>
</g>
</svg>
