<?xml version="1.0" encoding="iso-8859-1"?>
<!-- Generator: Adobe Illustrator 16.0.0, SVG Export Plug-In . SVG Version: 6.00 Build 0)  -->
<!DOCTYPE svg PUBLIC "-//W3C//DTD SVG 1.1//EN" "http://www.w3.org/Graphics/SVG/1.1/DTD/svg11.dtd">
<svg version="1.1" id="Capa_1" xmlns="http://www.w3.org/2000/svg" xmlns:xlink="http://www.w3.org/1999/xlink" x="0px" y="0px"
	 width="792px" height="792px" viewBox="0 0 792 792" style="enable-background:new 0 0 792 792;" xml:space="preserve">
<g>
	<path d="M569.633,792c-12.053,0-24.222-6.026-36.157-18.001L208.177,448.7c-29.082-29.042-29.082-76.358,0-105.4L533.476,18.001
		C545.411,6.026,557.58,0,569.633,0c16.602,0,36.002,12.519,36.002,47.86v696.281C605.635,779.481,586.234,792,569.633,792z
		 M566.25,40.939c-1.399,1.011-3.188,2.488-5.287,4.549L235.702,370.787c-13.879,13.88-13.879,36.507,0,50.426l325.3,325.299
		c2.061,2.061,3.849,3.538,5.248,4.51c0.272-1.711,0.506-4.043,0.506-6.92V47.86C566.756,44.944,566.522,42.689,566.25,40.939z"/>
</g>
<g>
</g>
<g>
</g>
<g>
</g>
<g>
</g>
<g>
</g>
<g>
</g>
<g>
</g>
<g>
</g>
<g>
</g>
<g>
</g>
<g>
</g>
<g>
</g>
<g>
</g>
<g>
</g>
<g>
</g>
</svg>
