<svg id="Layer_1" data-name="Layer 1" xmlns="http://www.w3.org/2000/svg" viewBox="0 0 200 200"><defs><style>.cls-1{fill:#231f20;}</style></defs><title>Wondicon - UI (Free)</title><path class="cls-1" d="M170.31,55H90.5a5,5,0,0,1,0-10h79.81a5,5,0,0,1,0,10Z"/><path class="cls-1" d="M50,55H29.69a5,5,0,1,1,0-10H50a5,5,0,0,1,0,10Z"/><path class="cls-1" d="M170.69,155H90.5a5,5,0,0,1,0-10h80.19a5,5,0,0,1,0,10Z"/><path class="cls-1" d="M50,155H29.69a5,5,0,1,1,0-10H50a5,5,0,0,1,0,10Z"/><path class="cls-1" d="M170.69,105H150a5,5,0,0,1,0-10h20.69a5,5,0,0,1,0,10Z"/><path class="cls-1" d="M109.5,105H29.31a5,5,0,0,1,0-10H109.5a5,5,0,0,1,0,10Z"/><path class="cls-1" d="M90.5,74.81H50a5,5,0,0,1-5-5V29.31a5,5,0,0,1,5-5H90.5a5,5,0,0,1,5,5v40.5A5,5,0,0,1,90.5,74.81ZM55,64.81H85.5V34.31H55Z"/><path class="cls-1" d="M90.5,175.25H50a5,5,0,0,1-5-5v-40.5a5,5,0,0,1,5-5H90.5a5,5,0,0,1,5,5v40.5A5,5,0,0,1,90.5,175.25Zm-35.5-10H85.5v-30.5H55Z"/><path class="cls-1" d="M150,125H109.5a5,5,0,0,1-5-5V79.5a5,5,0,0,1,5-5H150a5,5,0,0,1,5,5V120A5,5,0,0,1,150,125Zm-35.5-10H145V84.5H114.5Z"/></svg>